<svg xmlns="http://www.w3.org/2000/svg" width="25" height="26" viewBox="0 0 25.99 26"><defs><style>.cls-1{fill:#958f87}</style></defs><title>instagram</title><g id="Calque_2" data-name="Calque 2"><g id="Calque_1-2" data-name="Calque 1"><path id="instagram" class="cls-1" d="M25.91 18.36a9.61 9.61 0 0 1-.6 3.16 6.66 6.66 0 0 1-3.8 3.8 9.51 9.51 0 0 1-3.16.6C17 26 16.52 26 13 26s-4 0-5.36-.08a9.51 9.51 0 0 1-3.15-.6 6.66 6.66 0 0 1-3.8-3.8 9.61 9.61 0 0 1-.6-3.16C0 17 0 16.53 0 13s0-4 .08-5.36a9.61 9.61 0 0 1 .6-3.16 6.66 6.66 0 0 1 3.8-3.8 9.51 9.51 0 0 1 3.15-.6C9 0 9.46 0 13 0s4 0 5.36.08a9.51 9.51 0 0 1 3.16.6 6.66 6.66 0 0 1 3.8 3.8 9.61 9.61 0 0 1 .6 3.16C26 9 26 9.47 26 13s0 4-.09 5.36zM23.57 7.75a7.24 7.24 0 0 0-.45-2.42 4 4 0 0 0-1-1.49 3.89 3.89 0 0 0-1.5-1 7.18 7.18 0 0 0-2.41-.45c-1.37-.06-1.78-.08-5.25-.08s-3.88 0-5.25.08a7.18 7.18 0 0 0-2.41.45 3.89 3.89 0 0 0-1.5 1 4 4 0 0 0-1 1.49 7.24 7.24 0 0 0-.4 2.42c-.06 1.37-.07 1.78-.07 5.25s0 3.88.08 5.25a7.24 7.24 0 0 0 .45 2.42 4 4 0 0 0 1 1.49 3.89 3.89 0 0 0 1.5 1 7.18 7.18 0 0 0 2.41.45c1.37.06 1.78.08 5.25.08s3.88 0 5.25-.08a7.18 7.18 0 0 0 2.41-.45 3.89 3.89 0 0 0 1.5-1 4 4 0 0 0 1-1.49 7.24 7.24 0 0 0 .45-2.42c.06-1.37.08-1.78.08-5.25s-.08-3.88-.14-5.25zm-3.64-.13a1.56 1.56 0 1 1 1.56-1.56 1.56 1.56 0 0 1-1.56 1.56zM13 19.68A6.68 6.68 0 1 1 19.66 13 6.68 6.68 0 0 1 13 19.68zm0-11A4.33 4.33 0 1 0 17.32 13 4.33 4.33 0 0 0 13 8.67z"/></g></g></svg>