<svg xmlns="http://www.w3.org/2000/svg" width="23" height="29" viewBox="0 0 23 29"><defs><style>.cls-1{fill:#958f87}</style></defs><title>pinterest</title><g id="Calque_2" data-name="Calque 2"><g id="Calque_1-2" data-name="Calque 1"><path id="pinterest" class="cls-1" d="M12.2 0C4.09 0 0 5.67 0 10.41c0 2.86 1.11 5.41 3.5 6.36a.59.59 0 0 0 .85-.42c.08-.29.27-1 .35-1.33a.8.8 0 0 0-.25-.93 4.74 4.74 0 0 1-1.13-3.27 8 8 0 0 1 8-8h.41c4.58 0 7.1 2.74 7.1 6.39 0 4.8-2.18 8.85-5.41 8.85a2.6 2.6 0 0 1-2.69-3.21c.51-2.11 1.51-4.38 1.51-5.91a2.25 2.25 0 0 0-2-2.49h-.31c-1.83 0-3.29 1.85-3.29 4.31a6.27 6.27 0 0 0 .54 2.64L5 22.49a18.26 18.26 0 0 0-.05 6.33.23.23 0 0 0 .41.09 17.58 17.58 0 0 0 3.08-5.45c.21-.74 1.2-4.58 1.2-4.58A4.91 4.91 0 0 0 13.8 21c5.48 0 9.2-4.92 9.2-11.46C23 4.6 18.71 0 12.2 0z"/></g></g></svg>