<svg xmlns="http://www.w3.org/2000/svg" width="31" height="26" viewBox="0 0 31 26"><defs><style>.cls-1{fill:#958f87}</style></defs><title>twitter</title><g id="Calque_2" data-name="Calque 2"><g id="Calque_1-2" data-name="Calque 1"><path id="twitter" class="cls-1" d="M31 3.08a12.51 12.51 0 0 1-3.65 1 6.55 6.55 0 0 0 2.8-3.6 12.44 12.44 0 0 1-4 1.59A6.28 6.28 0 0 0 21.47 0a6.46 6.46 0 0 0-6.36 6.56 6.81 6.81 0 0 0 .16 1.5A17.87 17.87 0 0 1 2.16 1.2a6.7 6.7 0 0 0-.86 3.3A6.6 6.6 0 0 0 4.13 10a6.15 6.15 0 0 1-2.88-.82v.09a6.51 6.51 0 0 0 5.1 6.43 6.18 6.18 0 0 1-1.68.23 5.91 5.91 0 0 1-1.2-.12 6.39 6.39 0 0 0 5.94 4.56 12.51 12.51 0 0 1-7.9 2.81A12.68 12.68 0 0 1 0 23.05 17.62 17.62 0 0 0 9.75 26c11.7 0 18.1-10 18.1-18.68v-.84A13.35 13.35 0 0 0 31 3.08z"/></g></g></svg>