<svg xmlns="http://www.w3.org/2000/svg" width="23" height="29" viewBox="0 0 23.22 28.96"><defs><style>.cls-1{fill:#958f87}</style></defs><title>youtube</title><g id="Calque_2" data-name="Calque 2"><path class="cls-1" d="M9.18.18H7.59L6.52 4.43 5.4.18H3.75c.33 1 .68 2 1 3a27 27 0 0 1 1 3.42V11h1.54V6.62L9.18.18m2.11 2.66a1.91 1.91 0 0 0-1.65.83 3.21 3.21 0 0 0-.45 1.91v2.81a3.22 3.22 0 0 0 .45 1.9 2.07 2.07 0 0 0 3.3 0 3.26 3.26 0 0 0 .44-1.9V5.57a3.26 3.26 0 0 0-.44-1.91 1.93 1.93 0 0 0-1.66-.83m7.34.1h-1.41V9.1a1.23 1.23 0 0 1-.89.68.32.32 0 0 1-.32-.31 3.56 3.56 0 0 1 0-.57V2.93h-1.45v6.38a4.19 4.19 0 0 0 .13 1.2.87.87 0 0 0 .91.6 2.25 2.25 0 0 0 1.62-1V11h1.42V2.93m-7.35 6.85c-.46 0-.68-.37-.68-1.12V5.27c0-.74.22-1.12.68-1.12s.68.38.68 1.12v3.39c0 .75-.22 1.12-.68 1.12M9.17 0H7.58L6.51 4.25 5.4 0H3.74c.33 1 .68 2 1 3a28.12 28.12 0 0 1 1 3.42v4.39h1.54V6.44zm4.2 8.21V5.39a3.22 3.22 0 0 0-.44-1.9 2.06 2.06 0 0 0-2.86-.44 2 2 0 0 0-.44.44 3.18 3.18 0 0 0-.44 1.9v2.82a3.2 3.2 0 0 0 .44 1.9 2.06 2.06 0 0 0 2.86.44 2 2 0 0 0 .44-.44 3.24 3.24 0 0 0 .45-1.9zM12 8.49c0 .74-.22 1.12-.68 1.12s-.68-.38-.68-1.12V5.1c0-.75.22-1.12.68-1.12s.68.37.68 1.12zm6.66 2.34V2.76H17.2v6.16a1.25 1.25 0 0 1-.9.69.33.33 0 0 1-.3-.33 3.43 3.43 0 0 1 0-.57V2.76h-1.46v6.37a4.26 4.26 0 0 0 .13 1.21.87.87 0 0 0 .91.6 2.27 2.27 0 0 0 1.62-1v.89h1.42zm.72 8.17q-.71 0-.71 1.11v.74h1.4v-.74c0-.74-.22-1.11-.69-1.11zm-5.21 0a1 1 0 0 0-.7.35v4.86a1 1 0 0 0 .7.36q.61 0 .61-1.08V20.1c0-.72-.19-1.09-.6-1.09zm8.64-4.06a3 3 0 0 0-2.51-2.34 76.44 76.44 0 0 0-8.69-.33 76.45 76.45 0 0 0-8.69.33 3 3 0 0 0-2.51 2.35 39.6 39.6 0 0 0 0 11.32 3 3 0 0 0 2.51 2.35 74.37 74.37 0 0 0 8.69.33 74.34 74.34 0 0 0 8.69-.33 3 3 0 0 0 2.51-2.35 39.81 39.81 0 0 0 0-11.32zM6.62 16.59H5v9.2H3.39v-9.2H1.74v-1.51h4.89v1.51zm4.24 9.2H9.45v-.88a2.25 2.25 0 0 1-1.6 1 .86.86 0 0 1-.91-.6 4.11 4.11 0 0 1-.12-1.19V17.8h1.4v5.88a4.45 4.45 0 0 0 0 .56.32.32 0 0 0 .31.34 1.22 1.22 0 0 0 .89-.68v-6.1h1.4v8zm5.33-2.4A6.62 6.62 0 0 1 16 25a1.12 1.12 0 0 1-1.12.9 1.9 1.9 0 0 1-1.4-.9v.78h-1.4v-10.7h1.4v3.49a1.9 1.9 0 0 1 1.45-.87 1.12 1.12 0 0 1 1.12.91 6.36 6.36 0 0 1 .14 1.6zm5.3-1.34h-2.8v1.42c0 .74.23 1.11.72 1.11A.6.6 0 0 0 20 24v-1h1.43v1.14a2.14 2.14 0 0 1-.33.87 1.92 1.92 0 0 1-1.7.87 2 2 0 0 1-1.7-.82 3.16 3.16 0 0 1-.45-1.88v-2.77a3.2 3.2 0 0 1 .43-1.89 2 2 0 0 1 1.68-.82 2 2 0 0 1 1.66.82 3.24 3.24 0 0 1 .43 1.89v1.65z" id="Calque_1-2" data-name="Calque 1"/></g></svg>